# xmcd CD database file generated by Grip 3.2.0
# 
# Track frame offsets:
#       225
#       15832
#       36154
#       56024
#       80425
#       103084
#       119770
#       141159
#       164725
#       188941
#       210256
#       226079
#       249842
# 
# Disc length: 3746 seconds
# 
# Revision: 3
# Processed by: cddbd v1.5.1PL0 Copyright (c) Steve Scherf et al.
# Submitted via: Grip 3.2.0
# 
DISCID=a90e9f0d
DTITLE=The Rolling Stones - Bridges To Babylon
DYEAR=1997
DGENRE=Rock
TTITLE0=Flip The Switch
TTITLE1=Anybody Seen My Baby?
TTITLE2=Low Down
TTITLE3=Already Over Me
TTITLE4=Gunface
TTITLE5=You Don't Have To Mean It
TTITLE6=Out Of Control
TTITLE7=Saint Of Me
TTITLE8=Might As Well Get Juiced
TTITLE9=Always Suffering
TTITLE10=Too Tight
TTITLE11=Thief In The Night
TTITLE12=How Can I Stop
EXTD=
EXTT0=
EXTT1=
EXTT2=
EXTT3=
EXTT4=
EXTT5=
EXTT6=
EXTT7=
EXTT8=
EXTT9=
EXTT10=
EXTT11=
EXTT12=
PLAYORDER=
